<svg width="23" height="15" viewBox="0 0 23 15" fill="none" xmlns="http://www.w3.org/2000/svg">
<path d="M14.9402 1.31129H20.6502V2.71552H14.9402V1.31129ZM9.21887 6.86729C10.4811 6.25512 11.1422 5.3238 11.1422 3.88475C11.1422 1.03856 9.05287 0.348053 6.64011 0.348053H0V14.6341H6.82615C9.38488 14.6341 11.7862 13.3865 11.7862 10.4852C11.7862 8.69221 10.9505 7.36632 9.21887 6.86729ZM3.09681 2.78515H6.00186C7.12094 2.78515 8.12555 3.10139 8.12555 4.41859C8.12555 5.63133 7.34419 6.11875 6.23655 6.11875H3.09681V2.78515ZM6.40255 12.2086H3.09395V8.27443H6.46838C7.83075 8.27443 8.69225 8.85179 8.69225 10.314C8.69225 11.7531 7.66475 12.2086 6.40255 12.2086ZM22.8826 9.61193C22.8826 6.55105 21.1167 4.0008 17.9226 4.0008C14.8172 4.0008 12.7049 6.37117 12.7049 9.47847C12.7049 12.6989 14.7056 14.9097 17.9226 14.9097C20.3582 14.9097 21.9353 13.7985 22.6937 11.4281H20.2237C19.9547 12.313 18.8613 12.7773 18.0113 12.7773C16.3684 12.7773 15.5098 11.8024 15.5098 10.1458H22.8626C22.8712 9.97459 22.8826 9.79471 22.8826 9.61193ZM15.5098 8.35276C15.5985 6.99205 16.4944 6.14196 17.8338 6.14196C19.242 6.14196 19.9461 6.98044 20.0692 8.35276H15.5098Z" fill="#333333"/>
</svg>
