<svg width="24" height="25" viewBox="0 0 24 25" fill="none" xmlns="http://www.w3.org/2000/svg">
<path d="M12.0008 0.934802C5.37109 0.934802 0 6.31039 0 12.9356C0 18.2406 3.43822 22.7372 8.20326 24.3235C8.80555 24.4368 9.02306 24.0655 9.02306 23.7445C9.02306 23.4595 9.01631 22.7057 9.01181 21.7051C5.67185 22.4281 4.96831 20.0917 4.96831 20.0917C4.42153 18.7087 3.63248 18.3374 3.63248 18.3374C2.54641 17.5956 3.71873 17.6113 3.71873 17.6113C4.92181 17.6931 5.55485 18.8452 5.55485 18.8452C6.62516 20.6813 8.36302 20.1503 9.05082 19.8412C9.15582 19.0679 9.46859 18.5362 9.80911 18.2399C7.14495 17.9391 4.34352 16.9078 4.34352 12.3093C4.34352 10.9959 4.80855 9.92636 5.57735 9.08631C5.44459 8.78554 5.03806 7.56297 5.68311 5.90986C5.68311 5.90986 6.68742 5.58959 8.98331 7.14069C9.9613 6.8747 10.97 6.73827 11.9835 6.73491C13.0036 6.74166 14.0229 6.87517 14.9837 7.14069C17.2661 5.58959 18.2696 5.90986 18.2696 5.90986C18.9139 7.56297 18.5074 8.78479 18.3904 9.08631C19.1517 9.92636 19.6167 10.9967 19.6167 12.3093C19.6167 16.9183 16.8116 17.9346 14.1444 18.2279C14.5614 18.5872 14.9522 19.326 14.9522 20.4473C14.9522 22.0524 14.9372 23.3455 14.9372 23.7362C14.9372 24.0482 15.1472 24.4233 15.7652 24.3025C20.5655 22.7327 24 18.2324 24 12.9348C24 6.30964 18.6289 0.934052 11.9993 0.934052L12.0008 0.934802Z" fill="#333333"/>
</svg>
