<svg width="24" height="25" viewBox="0 0 24 25" fill="none" xmlns="http://www.w3.org/2000/svg">
<path fill-rule="evenodd" clip-rule="evenodd" d="M7.03002 0.985251C8.30554 0.926531 8.71222 0.913483 11.9614 0.913483C15.2105 0.913483 15.6172 0.927619 16.8916 0.985251C18.1661 1.04288 19.036 1.24623 19.7971 1.54091C20.5942 1.84212 21.3173 2.31296 21.9154 2.9219C22.5243 3.51889 22.9941 4.24092 23.2942 5.03907C23.59 5.80024 23.7922 6.67016 23.851 7.94242C23.9097 9.22011 23.9227 9.62679 23.9227 12.8748C23.9227 16.124 23.9086 16.5307 23.851 17.8062C23.7933 19.0784 23.59 19.9484 23.2942 20.7095C22.9941 21.5078 22.5236 22.231 21.9154 22.8289C21.3173 23.4378 20.5942 23.9076 19.7971 24.2077C19.036 24.5035 18.1661 24.7057 16.8938 24.7644C15.6172 24.8232 15.2105 24.8362 11.9614 24.8362C8.71222 24.8362 8.30554 24.8221 7.03002 24.7644C5.75777 24.7068 4.88785 24.5035 4.12667 24.2077C3.32844 23.9075 2.60521 23.437 2.00733 22.8289C1.39881 22.2315 0.927892 21.5087 0.627428 20.7106C0.332743 19.9495 0.130488 19.0795 0.0717682 17.8073C0.0130487 16.5296 0 16.1229 0 12.8748C0 9.62571 0.0141361 9.21902 0.0717682 7.94459C0.1294 6.67016 0.332743 5.80024 0.627428 5.03907C0.928336 4.24101 1.39961 3.51814 2.00842 2.92082C2.60545 2.31242 3.32795 1.84151 4.12558 1.54091C4.88676 1.24623 5.75668 1.04397 7.02893 0.985251H7.03002ZM16.7948 3.1383C15.5335 3.08066 15.1551 3.0687 11.9614 3.0687C8.76768 3.0687 8.38927 3.08066 7.12789 3.1383C5.96111 3.19158 5.32825 3.38622 4.90634 3.55042C4.3485 3.7679 3.94943 4.02561 3.53078 4.44426C3.13393 4.83034 2.82852 5.30035 2.63694 5.81982C2.47274 6.24173 2.2781 6.87459 2.22481 8.04137C2.16718 9.30275 2.15522 9.68116 2.15522 12.8748C2.15522 16.0685 2.16718 16.4469 2.22481 17.7083C2.2781 18.8751 2.47274 19.508 2.63694 19.9299C2.82832 20.4486 3.13388 20.9194 3.53078 21.3054C3.9168 21.7023 4.38765 22.0079 4.90634 22.1993C5.32825 22.3635 5.96111 22.5581 7.12789 22.6114C8.38927 22.669 8.76659 22.681 11.9614 22.681C15.1561 22.681 15.5335 22.669 16.7948 22.6114C17.9616 22.5581 18.5945 22.3635 19.0164 22.1993C19.5742 21.9818 19.9733 21.7241 20.392 21.3054C20.7889 20.9194 21.0944 20.4486 21.2858 19.9299C21.45 19.508 21.6446 18.8751 21.6979 17.7083C21.7556 16.4469 21.7675 16.0685 21.7675 12.8748C21.7675 9.68116 21.7556 9.30275 21.6979 8.04137C21.6446 6.87459 21.45 6.24173 21.2858 5.81982C21.0683 5.26198 20.8106 4.86291 20.392 4.44426C20.0058 4.04744 19.5359 3.74203 19.0164 3.55042C18.5945 3.38622 17.9616 3.19158 16.7948 3.1383ZM10.4336 16.5622C11.2868 16.9174 12.2369 16.9653 13.1215 16.6978C14.0062 16.4303 14.7705 15.864 15.284 15.0956C15.7975 14.3271 16.0283 13.4043 15.9369 12.4846C15.8456 11.5649 15.4378 10.7055 14.7832 10.0531C14.3659 9.63601 13.8613 9.31668 13.3058 9.11805C12.7502 8.91942 12.1576 8.84644 11.5704 8.90435C10.9833 8.96225 10.4163 9.14962 9.91032 9.45295C9.4043 9.75629 8.97183 10.168 8.64405 10.6586C8.31626 11.1491 8.10131 11.7062 8.01468 12.2898C7.92804 12.8734 7.97187 13.4689 8.14302 14.0335C8.31416 14.5981 8.60836 15.1177 9.00443 15.555C9.4005 15.9922 9.8886 16.3362 10.4336 16.5622ZM7.61395 8.52744C8.18486 7.95653 8.86263 7.50366 9.60856 7.19468C10.3545 6.88571 11.154 6.72668 11.9614 6.72668C12.7688 6.72668 13.5682 6.88571 14.3142 7.19468C15.0601 7.50365 15.7379 7.95653 16.3088 8.52744C16.8797 9.09835 17.3326 9.77612 17.6415 10.522C17.9505 11.268 18.1095 12.0675 18.1095 12.8748C18.1095 13.6822 17.9505 14.4817 17.6415 15.2277C17.3326 15.9736 16.8797 16.6514 16.3088 17.2223C15.1558 18.3753 13.592 19.023 11.9614 19.023C10.3308 19.023 8.76696 18.3753 7.61395 17.2223C6.46095 16.0693 5.8132 14.5054 5.8132 12.8748C5.8132 11.2443 6.46095 9.68044 7.61395 8.52744ZM19.4731 7.6423C19.6146 7.50884 19.7278 7.34835 19.8062 7.17034C19.8845 6.99232 19.9263 6.8004 19.9292 6.60593C19.932 6.41146 19.8958 6.2184 19.8227 6.03818C19.7496 5.85796 19.641 5.69423 19.5035 5.55671C19.366 5.41919 19.2023 5.31065 19.022 5.23754C18.8418 5.16442 18.6488 5.12821 18.4543 5.13104C18.2598 5.13388 18.0679 5.1757 17.8899 5.25404C17.7119 5.33238 17.5514 5.44564 17.4179 5.58711C17.1584 5.86226 17.0163 6.22772 17.0218 6.60593C17.0273 6.98414 17.18 7.3453 17.4475 7.61276C17.7149 7.88023 18.0761 8.03292 18.4543 8.03843C18.8325 8.04395 19.198 7.90185 19.4731 7.6423Z" fill="#333333"/>
</svg>
