<svg width="18" height="18" viewBox="0 0 18 18" fill="none" xmlns="http://www.w3.org/2000/svg">
<path d="M2.66057 4.93729C3.79847 4.93729 4.72092 4.01484 4.72092 2.87694C4.72092 1.73904 3.79847 0.816589 2.66057 0.816589C1.52267 0.816589 0.60022 1.73904 0.60022 2.87694C0.60022 4.01484 1.52267 4.93729 2.66057 4.93729Z" fill="#333333"/>
<path d="M6.66636 6.49855V17.9293H10.2155V12.2766C10.2155 10.785 10.4961 9.34047 12.3455 9.34047C14.1695 9.34047 14.1921 11.0458 14.1921 12.3707V17.9303H17.7431V11.6617C17.7431 8.58244 17.0802 6.21605 13.4811 6.21605C11.7532 6.21605 10.595 7.1643 10.1213 8.0617H10.0733V6.49855H6.66636ZM0.88269 6.49855H4.43745V17.9293H0.88269V6.49855Z" fill="#333333"/>
</svg>
